<svg xmlns="http://www.w3.org/2000/svg" xmlns:xlink="http://www.w3.org/1999/xlink" width="23.516" height="23.429" viewBox="0 0 23.516 23.429"><defs><style>.a,.g{fill:#fff;}.b{clip-path:url(#a);}.c{fill:#d31c24;}.d{fill:#6b47ed;}.e{fill:none;}.f,.g{stroke:none;}</style><clipPath id="a"><ellipse class="a" cx="10.73" cy="11.369" rx="10.73" ry="11.369"/></clipPath></defs><g transform="translate(1.1 0.533)"><g class="b" transform="translate(0 0)"><g transform="translate(-1.566 0.093)"><rect class="c" width="32.003" height="4.367"/><rect class="a" width="32.003" height="4.367" transform="translate(0 4.367)"/><rect class="c" width="32.003" height="4.367" transform="translate(0 8.733)"/><rect class="a" width="32.003" height="4.367" transform="translate(0 13.101)"/><rect class="d" width="11.951" height="8.733"/><path class="a" d="M13.456,14.669l-.4.2.076-.432-.323-.305.446-.063.2-.392.2.392.446.063-.322.305.076.432Z" transform="translate(-10.867 -11.664)"/><path class="a" d="M28.346,14.669l-.4.2.076-.432-.323-.305.446-.063.2-.392.2.392.446.063-.323.305.077.432Z" transform="translate(-23.498 -11.664)"/><path class="a" d="M43.235,14.669l-.4.2.077-.432-.323-.305.446-.063.2-.392.2.392.446.063-.323.305.076.432Z" transform="translate(-36.129 -11.664)"/><path class="a" d="M13.456,26.579l-.4.2.076-.432-.323-.305.446-.063.2-.392.2.392.446.063-.322.305.076.432Z" transform="translate(-10.867 -21.819)"/><path class="a" d="M28.346,26.579l-.4.2.076-.432-.323-.305.446-.063.2-.392.2.392.446.063-.323.305.077.432Z" transform="translate(-23.498 -21.819)"/><path class="a" d="M43.235,26.579l-.4.2.077-.432-.323-.305.446-.063.2-.392.2.392.446.063-.323.305.076.432Z" transform="translate(-36.129 -21.819)"/><path class="a" d="M13.456,38.489l-.4.2.076-.432-.323-.305.446-.063.2-.392.2.392.446.063-.322.305.076.432Z" transform="translate(-10.867 -31.974)"/><path class="a" d="M28.346,38.489l-.4.2.076-.432-.323-.305.446-.063.2-.392.2.392.446.063-.323.305.077.432Z" transform="translate(-23.498 -31.974)"/><path class="a" d="M43.235,38.489l-.4.2.077-.432-.323-.305.446-.063.2-.392.2.392.446.063-.323.305.076.432Z" transform="translate(-36.129 -31.974)"/><path class="a" d="M58.1,14.669l-.4.2.076-.432-.323-.305.448-.063.2-.392.2.392.448.063-.323.305.076.432Z" transform="translate(-48.735 -11.664)"/><path class="a" d="M58.1,26.579l-.4.2.076-.432-.323-.305.448-.063.2-.392.2.392.448.063-.323.305.076.432Z" transform="translate(-48.735 -21.819)"/><path class="a" d="M58.1,38.489l-.4.2.076-.432-.323-.305.448-.063.2-.392.2.392.448.063-.323.305.076.432Z" transform="translate(-48.735 -31.974)"/><rect class="c" width="32.003" height="4.367" transform="translate(0 17.467)"/></g></g></g><g class="e" transform="translate(0 0)"><path class="f" d="M11.758,0A11.715,11.715,0,1,1,0,11.715,11.736,11.736,0,0,1,11.758,0Z"/><path class="g" d="M 11.7580509185791 2.000001907348633 C 6.37744140625 2.000001907348633 2 6.357982635498047 2 11.71467208862305 C 2 17.07136154174805 6.37744140625 21.42934226989746 11.7580509185791 21.42934226989746 C 17.1386604309082 21.42934226989746 21.5161018371582 17.07136154174805 21.5161018371582 11.71467208862305 C 21.5161018371582 6.357982635498047 17.1386604309082 2.000001907348633 11.7580509185791 2.000001907348633 M 11.7580509185791 1.9073486328125e-06 C 18.25184059143066 1.9073486328125e-06 23.5161018371582 5.244832992553711 23.5161018371582 11.71467208862305 C 23.5161018371582 18.18450164794922 18.25184059143066 23.42934226989746 11.7580509185791 23.42934226989746 C 5.264261245727539 23.42934226989746 0 18.18450164794922 0 11.71467208862305 C 0 5.244832992553711 5.264261245727539 1.9073486328125e-06 11.7580509185791 1.9073486328125e-06 Z"/></g></svg>