<svg xmlns="http://www.w3.org/2000/svg" xmlns:xlink="http://www.w3.org/1999/xlink" width="22.96" height="23.429" viewBox="0 0 22.96 23.429"><defs><style>.a{fill:#fff;}.b{clip-path:url(#a);}.c{fill:#f5f5f5;}.d{fill:#ff4b55;}.e{fill:#4249ac;}.f{fill:#d31c24;}.g{fill:#6b47ed;}.h{fill:#ff387d;}.i{fill:#f7bd31;}.j,.l{fill:none;}.j{stroke:#fff;stroke-width:2px;}.k{stroke:none;}</style><clipPath id="a"><ellipse class="a" cx="11.476" cy="11.369" rx="11.476" ry="11.369"/></clipPath></defs><g transform="translate(0 0.533)"><g class="b" transform="translate(0 0)"><g transform="translate(-2.344 -0.507)"><g transform="translate(1.997 2.431)"><rect class="c" width="22.254" height="1.712" transform="translate(0 3.424)"/><path class="c" d="M25.887,39.385H5.957A4.859,4.859,0,0,0,5.013,41.1H26.831A4.859,4.859,0,0,0,25.887,39.385Z" transform="translate(-4.795 -39.385)"/><rect class="c" width="22.254" height="1.712" transform="translate(0 6.847)"/><rect class="c" width="22.254" height="1.712" transform="translate(0 10.271)"/><rect class="c" width="22.254" height="1.712" transform="translate(0 13.695)"/><path class="c" d="M26.831,433.231H5.013a4.857,4.857,0,0,0,.944,1.712h19.93A4.857,4.857,0,0,0,26.831,433.231Z" transform="translate(-4.795 -416.112)"/></g><g transform="translate(1.997 0.719)"><path class="d" d="M42.96,0H30.442a4.857,4.857,0,0,0-3.706,1.712h19.93A4.857,4.857,0,0,0,42.96,0Z" transform="translate(-25.574 0)"/><rect class="d" width="22.254" height="1.712" transform="translate(0 6.847)"/><path class="d" d="M22.254,80.214a4.866,4.866,0,0,0-.218-1.444H.218A4.866,4.866,0,0,0,0,80.214v.267H22.254Z" transform="translate(0 -75.346)"/><rect class="d" width="22.254" height="1.712" transform="translate(0 10.271)"/><path class="d" d="M22.254,394.114v-.268H0v.268a4.866,4.866,0,0,0,.218,1.444H22.036A4.866,4.866,0,0,0,22.254,394.114Z" transform="translate(0 -376.727)"/><path class="d" d="M46.666,472.615H26.736a4.857,4.857,0,0,0,3.706,1.712H42.96A4.857,4.857,0,0,0,46.666,472.615Z" transform="translate(-25.574 -452.073)"/><rect class="d" width="22.254" height="1.712" transform="translate(0 13.695)"/></g><path class="e" d="M11.983,0H4.868A4.868,4.868,0,0,0,0,4.868v7.115H11.983Z" transform="translate(1.997 0.719)"/><g transform="translate(3.266 0.567)"><rect class="f" width="29.366" height="4.126"/><rect class="a" width="29.366" height="4.126" transform="translate(0 4.126)"/><rect class="f" width="29.366" height="4.126" transform="translate(0 8.25)"/><rect class="a" width="29.366" height="4.126" transform="translate(0 12.376)"/><rect class="g" width="10.966" height="8.25"/><path class="a" d="M13.4,14.614l-.366.192.07-.408-.3-.288.409-.06.184-.37.182.37.409.06-.3.288.07.408Z" transform="translate(-11.027 -11.776)"/><path class="a" d="M28.293,14.614l-.366.192L28,14.4l-.3-.288.409-.06.184-.37.182.37.409.06-.3.288.071.408Z" transform="translate(-23.844 -11.776)"/><path class="a" d="M43.182,14.614l-.366.192.071-.408-.3-.288L43,14.05l.182-.37.184.37.409.06-.3.288.07.408Z" transform="translate(-36.661 -11.776)"/><path class="a" d="M13.4,26.524l-.366.192.07-.408-.3-.288.409-.06.184-.37.182.37.409.06-.3.288.07.408Z" transform="translate(-11.027 -22.028)"/><path class="a" d="M28.293,26.524l-.366.192.07-.408-.3-.288.409-.06.184-.37.182.37.409.06-.3.288.071.408Z" transform="translate(-23.844 -22.028)"/><path class="a" d="M43.182,26.524l-.366.192.071-.408-.3-.288L43,25.96l.182-.37.184.37.409.06-.3.288.07.408Z" transform="translate(-36.661 -22.028)"/><path class="a" d="M13.4,38.434l-.366.192.07-.408-.3-.288.409-.06.184-.37.182.37.409.06-.3.288.07.408Z" transform="translate(-11.027 -32.28)"/><path class="a" d="M28.293,38.434l-.366.192.07-.408-.3-.288.409-.06.184-.37.182.37.409.06-.3.288.071.408Z" transform="translate(-23.844 -32.28)"/><path class="a" d="M43.182,38.434l-.366.192.071-.408-.3-.288L43,37.87l.182-.37.184.37.409.06-.3.288.07.408Z" transform="translate(-36.661 -32.28)"/><path class="a" d="M58.043,14.614l-.366.192.07-.408-.3-.288.411-.06.182-.37.182.37.411.06-.3.288.07.408Z" transform="translate(-49.453 -11.776)"/><path class="a" d="M58.043,26.524l-.366.192.07-.408-.3-.288.411-.06.182-.37.182.37.411.06-.3.288.07.408Z" transform="translate(-49.453 -22.028)"/><path class="a" d="M58.043,38.434l-.366.192.07-.408-.3-.288.411-.06.182-.37.182.37.411.06-.3.288.07.408Z" transform="translate(-49.453 -32.28)"/><rect class="f" width="29.366" height="4.126" transform="translate(0 16.501)"/></g><g transform="translate(0)"><rect width="31.736" height="7.43"/><rect class="h" width="31.736" height="7.43" transform="translate(0 7.43)"/><rect class="i" width="31.736" height="7.43" transform="translate(0 14.861)"/></g></g></g></g><g class="j" transform="translate(0.01 0)"><ellipse class="k" cx="11.475" cy="11.715" rx="11.475" ry="11.715"/><ellipse class="l" cx="11.475" cy="11.715" rx="10.475" ry="10.715"/></g></svg>